{
  "accessors": [
    {
      "bufferView": 2,
      "componentType": 5126,
      "count": 2557,
      "max": [
        2.3444998264312744,
        1.0397932529449463,
        0.17995792627334595
      ],
      "min": [
        -2.1348953247070313,
        -0.3983933925628662,
        -0.04595264047384262
      ],
      "type": "VEC3"
    },
    {
      "bufferView": 2,
      "byteOffset": 30684,
      "componentType": 5126,
      "count": 2557,
      "max": [
        1.0,
        1.0,
        1.0
      ],
      "min": [
        -1.0,
        -1.0,
        -1.0
      ],
      "type": "VEC3"
    },
    {
      "bufferView": 1,
      "componentType": 5126,
      "count": 2557,
      "max": [
        0.944348931312561,
        0.9857844114303589
      ],
      "min": [
        0.040583133697509766,
        0.05909213423728943
      ],
      "type": "VEC2"
    },
    {
      "bufferView": 0,
      "componentType": 5125,
      "count": 7164,
      "type": "SCALAR"
    },
    {
      "bufferView": 2,
      "byteOffset": 61368,
      "componentType": 5126,
      "count": 2569,
      "max": [
        2.3544998168945313,
        1.0497716665267944,
        0.18587402999401093
      ],
      "min": [
        -2.1448862552642822,
        -0.4082012474536896,
        -0.055952638387680054
      ],
      "type": "VEC3"
    },
    {
      "bufferView": 2,
      "byteOffset": 92196,
      "componentType": 5126,
      "count": 2569,
      "max": [
        1.0,
        1.0,
        1.0
      ],
      "min": [
        -1.0,
        -1.0,
        -1.0
      ],
      "type": "VEC3"
    },
    {
      "bufferView": 1,
      "byteOffset": 20456,
      "componentType": 5126,
      "count": 2569,
      "max": [
        0.944348931312561,
        0.9857844114303589
      ],
      "min": [
        0.040583133697509766,
        0.05909213423728943
      ],
      "type": "VEC2"
    },
    {
      "bufferView": 0,
      "byteOffset": 28656,
      "componentType": 5125,
      "count": 7164,
      "type": "SCALAR"
    }
  ],
  "asset": {
    "extras": {
      "author": "watermelon256 (https://sketchfab.com/watermelon256)",
      "license": "CC-BY-4.0 (http://creativecommons.org/licenses/by/4.0/)",
      "source": "https://sketchfab.com/3d-models/melodica-839211426c084e69a659d6b7e9a5ce85",
      "title": "Melodica"
    },
    "generator": "Sketchfab-13.60.0",
    "version": "2.0"
  },
  "bufferViews": [
    {
      "buffer": 0,
      "byteLength": 57312,
      "name": "floatBufferViews",
      "target": 34963
    },
    {
      "buffer": 0,
      "byteLength": 41008,
      "byteOffset": 57312,
      "byteStride": 8,
      "name": "floatBufferViews",
      "target": 34962
    },
    {
      "buffer": 0,
      "byteLength": 123024,
      "byteOffset": 98320,
      "byteStride": 12,
      "name": "floatBufferViews",
      "target": 34962
    }
  ],
  "buffers": [
    {
      "byteLength": 221344,
      "uri": "scene.bin"
    }
  ],
  "images": [
    {
      "uri": "textures/triola_baseColor.png"
    }
  ],
  "materials": [
    {
      "doubleSided": true,
      "name": "triola",
      "pbrMetallicRoughness": {
        "baseColorTexture": {
          "index": 0
        },
        "metallicFactor": 0.0
      }
    },
    {
      "name": "outline",
      "pbrMetallicRoughness": {
        "baseColorFactor": [
          0.0,
          0.0,
          0.0,
          1.0
        ],
        "metallicFactor": 0.0
      }
    }
  ],
  "meshes": [
    {
      "name": "triola_triola_0",
      "primitives": [
        {
          "attributes": {
            "NORMAL": 1,
            "POSITION": 0,
            "TEXCOORD_0": 2
          },
          "indices": 3,
          "material": 0,
          "mode": 4
        }
      ]
    },
    {
      "name": "triola_outline_0",
      "primitives": [
        {
          "attributes": {
            "NORMAL": 5,
            "POSITION": 4,
            "TEXCOORD_0": 6
          },
          "indices": 7,
          "material": 1,
          "mode": 4
        }
      ]
    }
  ],
  "nodes": [
    {
      "children": [
        1
      ],
      "matrix": [
        1.0,
        0.0,
        0.0,
        0.0,
        0.0,
        2.220446049250313e-16,
        -1.0,
        0.0,
        0.0,
        1.0,
        2.220446049250313e-16,
        0.0,
        0.0,
        0.0,
        0.0,
        1.0
      ],
      "name": "Sketchfab_model"
    },
    {
      "children": [
        2
      ],
      "matrix": [
        0.009999999776482582,
        0.0,
        0.0,
        0.0,
        0.0,
        0.0,
        0.009999999776482582,
        0.0,
        0.0,
        -0.009999999776482582,
        0.0,
        0.0,
        0.0,
        0.0,
        0.0,
        1.0
      ],
      "name": "b1463f208c044e80bed64639797bfbce.fbx"
    },
    {
      "children": [
        3
      ],
      "name": "RootNode"
    },
    {
      "children": [
        4,
        5
      ],
      "matrix": [
        15.762384982096378,
        -98.4337586954469,
        7.895718381674532,
        0.0,
        44.78724232312566,
        -4.368835226919998e-06,
        -89.40974737180282,
        0.0,
        88.00937532312,
        17.6293831170155,
        44.08576534605796,
        0.0,
        -37.4285888671875,
        315.84088134765625,
        -0.0080108642578125,
        1.0
      ],
      "name": "triola"
    },
    {
      "mesh": 0,
      "name": "triola_triola_0"
    },
    {
      "mesh": 1,
      "name": "triola_outline_0"
    }
  ],
  "samplers": [
    {
      "magFilter": 9729,
      "minFilter": 9987,
      "wrapS": 10497,
      "wrapT": 10497
    }
  ],
  "scene": 0,
  "scenes": [
    {
      "name": "Sketchfab_Scene",
      "nodes": [
        0
      ]
    }
  ],
  "textures": [
    {
      "sampler": 0,
      "source": 0
    }
  ]
}
