{
  "accessors": [
    {
      "bufferView": 2,
      "componentType": 5126,
      "count": 3066,
      "max": [
        0.9906179904937744,
        0.11241500079631805,
        0.9906179904937744
      ],
      "min": [
        -0.9906179904937744,
        -0.16500499844551086,
        -0.9906179904937744
      ],
      "type": "VEC3"
    },
    {
      "bufferView": 2,
      "byteOffset": 36792,
      "componentType": 5126,
      "count": 3066,
      "max": [
        0.9926913380622864,
        0.8406080603599548,
        0.9926915764808655
      ],
      "min": [
        -0.9926913380622864,
        -0.8406363129615784,
        -0.9926915764808655
      ],
      "type": "VEC3"
    },
    {
      "bufferView": 1,
      "componentType": 5126,
      "count": 3066,
      "max": [
        1.0,
        -0.0
      ],
      "min": [
        0.0,
        -1.0
      ],
      "type": "VEC2"
    },
    {
      "bufferView": 0,
      "componentType": 5125,
      "count": 3072,
      "type": "SCALAR"
    },
    {
      "bufferView": 2,
      "byteOffset": 73584,
      "componentType": 5126,
      "count": 7266,
      "max": [
        1.089326024055481,
        -0.09047999978065491,
        1.089326024055481
      ],
      "min": [
        -1.089326024055481,
        -0.11999399960041046,
        -1.089326024055481
      ],
      "type": "VEC3"
    },
    {
      "bufferView": 2,
      "byteOffset": 160776,
      "componentType": 5126,
      "count": 7266,
      "max": [
        0.9238840937614441,
        1.0,
        0.923883318901062
      ],
      "min": [
        -0.9238840937614441,
        -1.0,
        -0.923883318901062
      ],
      "type": "VEC3"
    },
    {
      "bufferView": 1,
      "byteOffset": 24528,
      "componentType": 5126,
      "count": 7266,
      "max": [
        0.65625,
        -0.6875
      ],
      "min": [
        0.34375,
        -1.0
      ],
      "type": "VEC2"
    },
    {
      "bufferView": 0,
      "byteOffset": 12288,
      "componentType": 5125,
      "count": 7680,
      "type": "SCALAR"
    },
    {
      "bufferView": 2,
      "byteOffset": 247968,
      "componentType": 5126,
      "count": 940,
      "max": [
        1.0,
        0.15265800058841705,
        1.0
      ],
      "min": [
        -1.0,
        -0.22055000066757202,
        -1.0
      ],
      "type": "VEC3"
    },
    {
      "bufferView": 2,
      "byteOffset": 259248,
      "componentType": 5126,
      "count": 940,
      "max": [
        1.0,
        1.0,
        1.0
      ],
      "min": [
        -1.0,
        -1.0,
        -1.0
      ],
      "type": "VEC3"
    },
    {
      "bufferView": 1,
      "byteOffset": 82656,
      "componentType": 5126,
      "count": 940,
      "max": [
        0.65625,
        -0.3125
      ],
      "min": [
        0.34375,
        -1.0
      ],
      "type": "VEC2"
    },
    {
      "bufferView": 0,
      "byteOffset": 43008,
      "componentType": 5125,
      "count": 1056,
      "type": "SCALAR"
    },
    {
      "bufferView": 2,
      "byteOffset": 270528,
      "componentType": 5126,
      "count": 435,
      "max": [
        1.0096189975738525,
        0.16246600449085236,
        1.0096189975738525
      ],
      "min": [
        -1.0096189975738525,
        0.01348199974745512,
        -1.0096189975738525
      ],
      "type": "VEC3"
    },
    {
      "bufferView": 2,
      "byteOffset": 275748,
      "componentType": 5126,
      "count": 435,
      "max": [
        0.9807855486869812,
        1.0,
        0.980785608291626
      ],
      "min": [
        -0.9807855486869812,
        -1.0,
        -0.9807855486869812
      ],
      "type": "VEC3"
    },
    {
      "bufferView": 1,
      "byteOffset": 90176,
      "componentType": 5126,
      "count": 435,
      "max": [
        0.65625,
        -0.5464730262756348
      ],
      "min": [
        0.34375,
        -1.0
      ],
      "type": "VEC2"
    },
    {
      "bufferView": 0,
      "byteOffset": 47232,
      "componentType": 5125,
      "count": 576,
      "type": "SCALAR"
    }
  ],
  "asset": {
    "extras": {
      "author": "IronEqual (https://sketchfab.com/ie-niels)",
      "license": "CC-BY-4.0 (http://creativecommons.org/licenses/by/4.0/)",
      "source": "https://sketchfab.com/3d-models/tamborine-from-poly-by-google-b2509c183e404a2d89c406bc0f40243b",
      "title": "Tamborine from Poly by Google"
    },
    "generator": "Sketchfab-12.65.0",
    "version": "2.0"
  },
  "bufferViews": [
    {
      "buffer": 0,
      "byteLength": 49536,
      "name": "floatBufferViews",
      "target": 34963
    },
    {
      "buffer": 0,
      "byteLength": 93656,
      "byteOffset": 49536,
      "byteStride": 8,
      "name": "floatBufferViews",
      "target": 34962
    },
    {
      "buffer": 0,
      "byteLength": 280968,
      "byteOffset": 143192,
      "byteStride": 12,
      "name": "floatBufferViews",
      "target": 34962
    }
  ],
  "buffers": [
    {
      "byteLength": 424160,
      "uri": "scene.bin"
    }
  ],
  "materials": [
    {
      "doubleSided": true,
      "name": "initialShadingGroup",
      "pbrMetallicRoughness": {
        "baseColorFactor": [
          0.5,
          0.5,
          0.5,
          1.0
        ],
        "metallicFactor": 0.0,
        "roughnessFactor": 0.969948
      }
    },
    {
      "doubleSided": true,
      "name": "lambert4SG",
      "pbrMetallicRoughness": {
        "baseColorFactor": [
          0.76,
          0.47,
          0.1,
          1.0
        ],
        "metallicFactor": 0.0,
        "roughnessFactor": 0.969948
      }
    },
    {
      "doubleSided": true,
      "name": "lambert2SG",
      "pbrMetallicRoughness": {
        "baseColorFactor": [
          0.56,
          0.22,
          0.05,
          1.0
        ],
        "metallicFactor": 0.0,
        "roughnessFactor": 0.969948
      }
    },
    {
      "doubleSided": true,
      "name": "lambert3SG",
      "pbrMetallicRoughness": {
        "baseColorFactor": [
          0.7,
          0.65,
          0.49,
          1.0
        ],
        "metallicFactor": 0.0,
        "roughnessFactor": 0.969948
      }
    }
  ],
  "meshes": [
    {
      "name": "Object_0",
      "primitives": [
        {
          "attributes": {
            "NORMAL": 1,
            "POSITION": 0,
            "TEXCOORD_0": 2
          },
          "indices": 3,
          "material": 0,
          "mode": 4
        }
      ]
    },
    {
      "name": "Object_1",
      "primitives": [
        {
          "attributes": {
            "NORMAL": 5,
            "POSITION": 4,
            "TEXCOORD_0": 6
          },
          "indices": 7,
          "material": 1,
          "mode": 4
        }
      ]
    },
    {
      "name": "Object_2",
      "primitives": [
        {
          "attributes": {
            "NORMAL": 9,
            "POSITION": 8,
            "TEXCOORD_0": 10
          },
          "indices": 11,
          "material": 2,
          "mode": 4
        }
      ]
    },
    {
      "name": "Object_3",
      "primitives": [
        {
          "attributes": {
            "NORMAL": 13,
            "POSITION": 12,
            "TEXCOORD_0": 14
          },
          "indices": 15,
          "material": 3,
          "mode": 4
        }
      ]
    }
  ],
  "nodes": [
    {
      "children": [
        1
      ],
      "matrix": [
        1.0,
        0.0,
        0.0,
        0.0,
        0.0,
        2.220446049250313e-16,
        -1.0,
        0.0,
        0.0,
        1.0,
        2.220446049250313e-16,
        0.0,
        0.0,
        0.0,
        0.0,
        1.0
      ],
      "name": "Sketchfab_model"
    },
    {
      "children": [
        2
      ],
      "name": "root"
    },
    {
      "children": [
        3
      ],
      "matrix": [
        1.0,
        0.0,
        0.0,
        0.0,
        0.0,
        2.220446049250313e-16,
        1.0,
        0.0,
        0.0,
        -1.0,
        2.220446049250313e-16,
        0.0,
        0.0,
        0.0,
        0.0,
        1.0
      ],
      "name": "GLTF_SceneRootNode"
    },
    {
      "children": [
        4,
        5,
        6,
        7
      ],
      "name": "node-0_0"
    },
    {
      "mesh": 0,
      "name": "Object_4"
    },
    {
      "mesh": 1,
      "name": "Object_5"
    },
    {
      "mesh": 2,
      "name": "Object_6"
    },
    {
      "mesh": 3,
      "name": "Object_7"
    }
  ],
  "scene": 0,
  "scenes": [
    {
      "name": "Sketchfab_Scene",
      "nodes": [
        0
      ]
    }
  ]
}
