{
  "accessors": [
    {
      "bufferView": 2,
      "componentType": 5126,
      "count": 6370,
      "max": [
        0.13560745120048523,
        0.9999998807907104,
        0.15565168857574463
      ],
      "min": [
        -0.4547822177410126,
        -1.0,
        -0.047059543430805206
      ],
      "type": "VEC3"
    },
    {
      "bufferView": 2,
      "byteOffset": 76440,
      "componentType": 5126,
      "count": 6370,
      "max": [
        0.9996945858001709,
        0.9999694228172302,
        0.9997684359550476
      ],
      "min": [
        -0.9998798370361328,
        -0.9986475110054016,
        -0.9995908141136169
      ],
      "type": "VEC3"
    },
    {
      "bufferView": 3,
      "componentType": 5126,
      "count": 6370,
      "max": [
        0.9998241662979126,
        0.998158872127533,
        0.9999696612358093,
        1.0
      ],
      "min": [
        -0.9996790885925293,
        -0.9998528361320496,
        -0.9982085824012756,
        -1.0
      ],
      "type": "VEC4"
    },
    {
      "bufferView": 1,
      "componentType": 5126,
      "count": 6370,
      "max": [
        0.9932387471199036,
        0.9901401400566101
      ],
      "min": [
        0.10808266699314117,
        0.008075833320617676
      ],
      "type": "VEC2"
    },
    {
      "bufferView": 1,
      "byteOffset": 50960,
      "componentType": 5126,
      "count": 6370,
      "max": [
        0.9932387471199036,
        0.9901401400566101
      ],
      "min": [
        0.10808266699314117,
        0.008075833320617676
      ],
      "type": "VEC2"
    },
    {
      "bufferView": 1,
      "byteOffset": 101920,
      "componentType": 5126,
      "count": 6370,
      "max": [
        0.9932387471199036,
        0.9901401400566101
      ],
      "min": [
        0.10808266699314117,
        0.008075833320617676
      ],
      "type": "VEC2"
    },
    {
      "bufferView": 1,
      "byteOffset": 152880,
      "componentType": 5126,
      "count": 6370,
      "max": [
        0.9932387471199036,
        0.9901401400566101
      ],
      "min": [
        0.10808266699314117,
        0.008075833320617676
      ],
      "type": "VEC2"
    },
    {
      "bufferView": 1,
      "byteOffset": 203840,
      "componentType": 5126,
      "count": 6370,
      "max": [
        0.9932387471199036,
        0.9901401400566101
      ],
      "min": [
        0.10808266699314117,
        0.008075833320617676
      ],
      "type": "VEC2"
    },
    {
      "bufferView": 0,
      "componentType": 5125,
      "count": 34068,
      "type": "SCALAR"
    },
    {
      "bufferView": 2,
      "byteOffset": 152880,
      "componentType": 5126,
      "count": 64339,
      "max": [
        0.4547821879386902,
        0.7656955718994141,
        0.1733466237783432
      ],
      "min": [
        -0.1715870350599289,
        -0.9823936820030212,
        -0.173346608877182
      ],
      "type": "VEC3"
    },
    {
      "bufferView": 2,
      "byteOffset": 924948,
      "componentType": 5126,
      "count": 64339,
      "max": [
        0.9999964833259583,
        0.9999902248382568,
        1.0
      ],
      "min": [
        -0.9999995827674866,
        -0.9999986886978149,
        -1.0
      ],
      "type": "VEC3"
    },
    {
      "bufferView": 3,
      "byteOffset": 101920,
      "componentType": 5126,
      "count": 64339,
      "max": [
        0.9999993443489075,
        0.9999275207519531,
        0.9999952912330627,
        1.0
      ],
      "min": [
        -0.9999995827674866,
        -0.9999744892120361,
        -0.9999988675117493,
        -1.0
      ],
      "type": "VEC4"
    },
    {
      "bufferView": 1,
      "byteOffset": 254800,
      "componentType": 5126,
      "count": 64339,
      "max": [
        2.041388511657715,
        1.095596194267273
      ],
      "min": [
        0.001642797258682549,
        0.01158982515335083
      ],
      "type": "VEC2"
    },
    {
      "bufferView": 1,
      "byteOffset": 769512,
      "componentType": 5126,
      "count": 64339,
      "max": [
        2.041388511657715,
        1.095596194267273
      ],
      "min": [
        0.001642797258682549,
        0.01158982515335083
      ],
      "type": "VEC2"
    },
    {
      "bufferView": 1,
      "byteOffset": 1284224,
      "componentType": 5126,
      "count": 64339,
      "max": [
        2.041388511657715,
        1.095596194267273
      ],
      "min": [
        0.001642797258682549,
        0.01158982515335083
      ],
      "type": "VEC2"
    },
    {
      "bufferView": 1,
      "byteOffset": 1798936,
      "componentType": 5126,
      "count": 64339,
      "max": [
        2.041388511657715,
        1.095596194267273
      ],
      "min": [
        0.001642797258682549,
        0.01158982515335083
      ],
      "type": "VEC2"
    },
    {
      "bufferView": 1,
      "byteOffset": 2313648,
      "componentType": 5126,
      "count": 64339,
      "max": [
        2.041388511657715,
        1.095596194267273
      ],
      "min": [
        0.001642797258682549,
        0.01158982515335083
      ],
      "type": "VEC2"
    },
    {
      "bufferView": 0,
      "byteOffset": 136272,
      "componentType": 5125,
      "count": 351882,
      "type": "SCALAR"
    }
  ],
  "asset": {
    "extras": {
      "author": "DailyArt (https://sketchfab.com/D.art)",
      "license": "CC-BY-NC-4.0 (http://creativecommons.org/licenses/by-nc/4.0/)",
      "source": "https://sketchfab.com/3d-models/violin-482f981a67f34f858fdb5e37fed61761",
      "title": "violin"
    },
    "generator": "Sketchfab-12.66.0",
    "version": "2.0"
  },
  "bufferViews": [
    {
      "buffer": 0,
      "byteLength": 1543800,
      "name": "floatBufferViews",
      "target": 34963
    },
    {
      "buffer": 0,
      "byteLength": 2828360,
      "byteOffset": 1543800,
      "byteStride": 8,
      "name": "floatBufferViews",
      "target": 34962
    },
    {
      "buffer": 0,
      "byteLength": 1697016,
      "byteOffset": 4372160,
      "byteStride": 12,
      "name": "floatBufferViews",
      "target": 34962
    },
    {
      "buffer": 0,
      "byteLength": 1131344,
      "byteOffset": 6069176,
      "byteStride": 16,
      "name": "floatBufferViews",
      "target": 34962
    }
  ],
  "buffers": [
    {
      "byteLength": 7200520,
      "uri": "scene.bin"
    }
  ],
  "images": [
    {
      "uri": "textures/xiaotiqin_baseColor.png"
    },
    {
      "uri": "textures/xiaotiqin_metallicRoughness.png"
    },
    {
      "uri": "textures/xiaotiqin_normal.png"
    }
  ],
  "materials": [
    {
      "name": "xiaotiqin",
      "normalTexture": {
        "index": 2
      },
      "occlusionTexture": {
        "index": 1
      },
      "pbrMetallicRoughness": {
        "baseColorTexture": {
          "index": 0
        },
        "metallicRoughnessTexture": {
          "index": 1
        }
      }
    }
  ],
  "meshes": [
    {
      "name": "Object_0",
      "primitives": [
        {
          "attributes": {
            "NORMAL": 1,
            "POSITION": 0,
            "TANGENT": 2,
            "TEXCOORD_0": 3,
            "TEXCOORD_1": 4,
            "TEXCOORD_2": 5,
            "TEXCOORD_3": 6,
            "TEXCOORD_4": 7
          },
          "indices": 8,
          "material": 0,
          "mode": 4
        }
      ]
    },
    {
      "name": "Object_1",
      "primitives": [
        {
          "attributes": {
            "NORMAL": 10,
            "POSITION": 9,
            "TANGENT": 11,
            "TEXCOORD_0": 12,
            "TEXCOORD_1": 13,
            "TEXCOORD_2": 14,
            "TEXCOORD_3": 15,
            "TEXCOORD_4": 16
          },
          "indices": 17,
          "material": 0,
          "mode": 4
        }
      ]
    }
  ],
  "nodes": [
    {
      "children": [
        1
      ],
      "matrix": [
        1.0,
        0.0,
        0.0,
        0.0,
        0.0,
        2.220446049250313e-16,
        -1.0,
        0.0,
        0.0,
        1.0,
        2.220446049250313e-16,
        0.0,
        0.0,
        0.0,
        0.0,
        1.0
      ],
      "name": "Sketchfab_model"
    },
    {
      "children": [
        2
      ],
      "name": "root"
    },
    {
      "children": [
        3
      ],
      "matrix": [
        1.0,
        0.0,
        0.0,
        0.0,
        0.0,
        2.220446049250313e-16,
        1.0,
        0.0,
        0.0,
        -1.0,
        2.220446049250313e-16,
        0.0,
        0.0,
        0.0,
        0.0,
        1.0
      ],
      "name": "GLTF_SceneRootNode"
    },
    {
      "children": [
        4,
        7
      ],
      "matrix": [
        21.447057723999023,
        0.0,
        0.0,
        0.0,
        0.0,
        21.447057723999023,
        0.0,
        0.0,
        0.0,
        0.0,
        21.447057723999023,
        0.0,
        3.814697265625e-06,
        21.018051147460938,
        -2.384185791015625e-07,
        1.0
      ],
      "name": "root_0"
    },
    {
      "children": [
        5
      ],
      "name": "xiaotiqin_g_1"
    },
    {
      "children": [
        6
      ],
      "name": "xiaotiqin_g_2"
    },
    {
      "mesh": 0,
      "name": "Object_6"
    },
    {
      "children": [
        8
      ],
      "name": "xiaotiqin_3"
    },
    {
      "children": [
        9
      ],
      "name": "xiaotiqin_4"
    },
    {
      "mesh": 1,
      "name": "Object_9"
    }
  ],
  "samplers": [
    {
      "magFilter": 9729,
      "minFilter": 9987,
      "wrapS": 10497,
      "wrapT": 10497
    }
  ],
  "scene": 0,
  "scenes": [
    {
      "name": "Sketchfab_Scene",
      "nodes": [
        0
      ]
    }
  ],
  "textures": [
    {
      "sampler": 0,
      "source": 0
    },
    {
      "sampler": 0,
      "source": 1
    },
    {
      "sampler": 0,
      "source": 2
    }
  ]
}
